<mxfile host="app.diagrams.net" modified="2020-07-06T19:49:20.841Z" agent="5.0 (Windows NT 10.0; Win64; x64) AppleWebKit/537.36 (KHTML, like Gecko) Chrome/83.0.4103.116 Safari/537.36" etag="U0PPbJqihckQu1gG25v5" version="13.3.9" type="github">
  <diagram id="x2H2rwS_t7CD9y_j6QkQ" name="Page-1">
    <mxGraphModel dx="650" dy="408" grid="1" gridSize="10" guides="1" tooltips="1" connect="1" arrows="1" fold="1" page="1" pageScale="1" pageWidth="1169" pageHeight="827" math="0" shadow="0">
      <root>
        <mxCell id="0" />
        <mxCell id="1" parent="0" />
        <mxCell id="dxDq6lMlbhvPlnrW9h93-3" value="" style="rounded=0;whiteSpace=wrap;html=1;" parent="1" vertex="1">
          <mxGeometry x="40" y="80" width="160" height="120" as="geometry" />
        </mxCell>
        <mxCell id="dxDq6lMlbhvPlnrW9h93-7" value="whiteboard" style="text;html=1;strokeColor=none;fillColor=none;align=center;verticalAlign=middle;whiteSpace=wrap;rounded=0;" parent="1" vertex="1">
          <mxGeometry x="55" y="90" width="130" height="20" as="geometry" />
        </mxCell>
        <mxCell id="dxDq6lMlbhvPlnrW9h93-10" value="" style="rounded=0;whiteSpace=wrap;html=1;" parent="1" vertex="1">
          <mxGeometry x="40" y="120" width="160" height="100" as="geometry" />
        </mxCell>
        <mxCell id="dxDq6lMlbhvPlnrW9h93-31" style="edgeStyle=orthogonalEdgeStyle;rounded=0;orthogonalLoop=1;jettySize=auto;html=1;entryX=0;entryY=0.5;entryDx=0;entryDy=0;fontColor=#000000;" parent="1" source="dxDq6lMlbhvPlnrW9h93-11" target="dxDq6lMlbhvPlnrW9h93-19" edge="1">
          <mxGeometry relative="1" as="geometry" />
        </mxCell>
        <mxCell id="dxDq6lMlbhvPlnrW9h93-11" value="&lt;div style=&quot;font-family: &amp;#34;consolas&amp;#34; , &amp;#34;courier new&amp;#34; , monospace ; line-height: 24px&quot;&gt;&lt;font style=&quot;font-size: 10px&quot;&gt;poliList*usersRegistered&lt;/font&gt;&lt;/div&gt;" style="text;html=1;strokeColor=none;fillColor=none;align=left;verticalAlign=middle;whiteSpace=wrap;rounded=0;labelBackgroundColor=none;" parent="1" vertex="1">
          <mxGeometry x="50" y="130" width="140" height="20" as="geometry" />
        </mxCell>
        <mxCell id="dxDq6lMlbhvPlnrW9h93-32" style="edgeStyle=orthogonalEdgeStyle;rounded=0;orthogonalLoop=1;jettySize=auto;html=1;entryX=0;entryY=0.5;entryDx=0;entryDy=0;fontColor=#000000;" parent="1" source="dxDq6lMlbhvPlnrW9h93-14" target="dxDq6lMlbhvPlnrW9h93-23" edge="1">
          <mxGeometry relative="1" as="geometry">
            <Array as="points">
              <mxPoint x="300" y="160" />
              <mxPoint x="300" y="285" />
              <mxPoint x="30" y="285" />
              <mxPoint x="30" y="415" />
            </Array>
          </mxGeometry>
        </mxCell>
        <mxCell id="dxDq6lMlbhvPlnrW9h93-14" value="&lt;div style=&quot;font-family: &amp;#34;consolas&amp;#34; , &amp;#34;courier new&amp;#34; , monospace ; line-height: 24px&quot;&gt;&lt;font style=&quot;font-size: 10px&quot;&gt;poliList *topics&lt;/font&gt;&lt;/div&gt;" style="text;html=1;strokeColor=none;fillColor=none;align=left;verticalAlign=middle;whiteSpace=wrap;rounded=0;labelBackgroundColor=none;" parent="1" vertex="1">
          <mxGeometry x="50" y="150" width="140" height="20" as="geometry" />
        </mxCell>
        <mxCell id="nmqKnieHWT0LCc0bH5Zg-18" style="edgeStyle=orthogonalEdgeStyle;rounded=0;orthogonalLoop=1;jettySize=auto;html=1;entryX=0;entryY=0.5;entryDx=0;entryDy=0;fontColor=#000000;" edge="1" parent="1" source="dxDq6lMlbhvPlnrW9h93-15" target="nmqKnieHWT0LCc0bH5Zg-11">
          <mxGeometry relative="1" as="geometry">
            <Array as="points">
              <mxPoint x="250" y="180" />
              <mxPoint x="250" y="250" />
              <mxPoint x="20" y="250" />
              <mxPoint x="20" y="1405" />
            </Array>
          </mxGeometry>
        </mxCell>
        <mxCell id="dxDq6lMlbhvPlnrW9h93-15" value="&lt;div style=&quot;font-family: &amp;#34;consolas&amp;#34; , &amp;#34;courier new&amp;#34; , monospace ; line-height: 24px&quot;&gt;&lt;font style=&quot;font-size: 10px&quot;&gt;poliList *messages&lt;/font&gt;&lt;/div&gt;" style="text;html=1;strokeColor=none;fillColor=none;align=left;verticalAlign=middle;whiteSpace=wrap;rounded=0;labelBackgroundColor=none;" parent="1" vertex="1">
          <mxGeometry x="50" y="170" width="140" height="20" as="geometry" />
        </mxCell>
        <mxCell id="dxDq6lMlbhvPlnrW9h93-39" style="edgeStyle=orthogonalEdgeStyle;rounded=0;orthogonalLoop=1;jettySize=auto;html=1;entryX=0.01;entryY=0.19;entryDx=0;entryDy=0;entryPerimeter=0;fontColor=#000000;" parent="1" source="dxDq6lMlbhvPlnrW9h93-16" target="dxDq6lMlbhvPlnrW9h93-33" edge="1">
          <mxGeometry relative="1" as="geometry" />
        </mxCell>
        <mxCell id="dxDq6lMlbhvPlnrW9h93-16" value="" style="whiteSpace=wrap;html=1;aspect=fixed;labelBackgroundColor=none;fontColor=#000000;align=left;" parent="1" vertex="1">
          <mxGeometry x="320" y="40" width="30" height="30" as="geometry" />
        </mxCell>
        <mxCell id="dxDq6lMlbhvPlnrW9h93-17" value="" style="whiteSpace=wrap;html=1;aspect=fixed;labelBackgroundColor=none;fontColor=#000000;align=left;" parent="1" vertex="1">
          <mxGeometry x="320" y="70" width="30" height="30" as="geometry" />
        </mxCell>
        <mxCell id="dxDq6lMlbhvPlnrW9h93-18" value="" style="whiteSpace=wrap;html=1;aspect=fixed;labelBackgroundColor=none;fontColor=#000000;align=left;" parent="1" vertex="1">
          <mxGeometry x="320" y="100" width="30" height="30" as="geometry" />
        </mxCell>
        <mxCell id="dxDq6lMlbhvPlnrW9h93-19" value="0" style="text;html=1;strokeColor=none;fillColor=none;align=center;verticalAlign=middle;whiteSpace=wrap;rounded=0;labelBackgroundColor=none;fontColor=#000000;" parent="1" vertex="1">
          <mxGeometry x="325" y="45" width="20" height="20" as="geometry" />
        </mxCell>
        <mxCell id="dxDq6lMlbhvPlnrW9h93-20" value="1" style="text;html=1;strokeColor=none;fillColor=none;align=center;verticalAlign=middle;whiteSpace=wrap;rounded=0;labelBackgroundColor=none;fontColor=#000000;" parent="1" vertex="1">
          <mxGeometry x="325" y="75" width="20" height="20" as="geometry" />
        </mxCell>
        <mxCell id="dxDq6lMlbhvPlnrW9h93-22" value="..." style="text;html=1;strokeColor=none;fillColor=none;align=center;verticalAlign=middle;whiteSpace=wrap;rounded=0;labelBackgroundColor=none;fontColor=#000000;" parent="1" vertex="1">
          <mxGeometry x="325" y="105" width="20" height="20" as="geometry" />
        </mxCell>
        <mxCell id="dxDq6lMlbhvPlnrW9h93-23" value="" style="whiteSpace=wrap;html=1;aspect=fixed;labelBackgroundColor=none;fontColor=#000000;align=left;" parent="1" vertex="1">
          <mxGeometry x="60" y="400" width="30" height="30" as="geometry" />
        </mxCell>
        <mxCell id="dxDq6lMlbhvPlnrW9h93-24" value="" style="whiteSpace=wrap;html=1;aspect=fixed;labelBackgroundColor=none;fontColor=#000000;align=left;" parent="1" vertex="1">
          <mxGeometry x="60" y="430" width="30" height="30" as="geometry" />
        </mxCell>
        <mxCell id="dxDq6lMlbhvPlnrW9h93-25" value="" style="whiteSpace=wrap;html=1;aspect=fixed;labelBackgroundColor=none;fontColor=#000000;align=left;" parent="1" vertex="1">
          <mxGeometry x="60" y="460" width="30" height="30" as="geometry" />
        </mxCell>
        <mxCell id="dxDq6lMlbhvPlnrW9h93-94" style="edgeStyle=orthogonalEdgeStyle;rounded=0;orthogonalLoop=1;jettySize=auto;html=1;entryX=0;entryY=0.25;entryDx=0;entryDy=0;fontColor=#000000;" parent="1" source="dxDq6lMlbhvPlnrW9h93-26" target="dxDq6lMlbhvPlnrW9h93-79" edge="1">
          <mxGeometry relative="1" as="geometry" />
        </mxCell>
        <mxCell id="dxDq6lMlbhvPlnrW9h93-26" value="0" style="text;html=1;strokeColor=none;fillColor=none;align=center;verticalAlign=middle;whiteSpace=wrap;rounded=0;labelBackgroundColor=none;fontColor=#000000;" parent="1" vertex="1">
          <mxGeometry x="65" y="405" width="20" height="20" as="geometry" />
        </mxCell>
        <mxCell id="dxDq6lMlbhvPlnrW9h93-27" value="1" style="text;html=1;strokeColor=none;fillColor=none;align=center;verticalAlign=middle;whiteSpace=wrap;rounded=0;labelBackgroundColor=none;fontColor=#000000;" parent="1" vertex="1">
          <mxGeometry x="65" y="435" width="20" height="20" as="geometry" />
        </mxCell>
        <mxCell id="dxDq6lMlbhvPlnrW9h93-28" value="..." style="text;html=1;strokeColor=none;fillColor=none;align=center;verticalAlign=middle;whiteSpace=wrap;rounded=0;labelBackgroundColor=none;fontColor=#000000;" parent="1" vertex="1">
          <mxGeometry x="65" y="465" width="20" height="20" as="geometry" />
        </mxCell>
        <mxCell id="dxDq6lMlbhvPlnrW9h93-29" value="HASHTABLE" style="text;html=1;strokeColor=none;fillColor=none;align=center;verticalAlign=middle;whiteSpace=wrap;rounded=0;labelBackgroundColor=none;fontColor=#000000;" parent="1" vertex="1">
          <mxGeometry x="315" y="20" width="40" height="20" as="geometry" />
        </mxCell>
        <mxCell id="dxDq6lMlbhvPlnrW9h93-30" value="HASHTABLE" style="text;html=1;strokeColor=none;fillColor=none;align=center;verticalAlign=middle;whiteSpace=wrap;rounded=0;labelBackgroundColor=none;fontColor=#000000;" parent="1" vertex="1">
          <mxGeometry x="55" y="380" width="40" height="20" as="geometry" />
        </mxCell>
        <mxCell id="dxDq6lMlbhvPlnrW9h93-33" value="" style="rounded=0;whiteSpace=wrap;html=1;" parent="1" vertex="1">
          <mxGeometry x="400" y="25" width="160" height="120" as="geometry" />
        </mxCell>
        <mxCell id="dxDq6lMlbhvPlnrW9h93-34" value="poliList" style="text;html=1;strokeColor=none;fillColor=none;align=center;verticalAlign=middle;whiteSpace=wrap;rounded=0;" parent="1" vertex="1">
          <mxGeometry x="415" y="35" width="130" height="20" as="geometry" />
        </mxCell>
        <mxCell id="dxDq6lMlbhvPlnrW9h93-35" value="" style="rounded=0;whiteSpace=wrap;html=1;" parent="1" vertex="1">
          <mxGeometry x="400" y="65" width="160" height="80" as="geometry" />
        </mxCell>
        <mxCell id="dxDq6lMlbhvPlnrW9h93-46" style="edgeStyle=orthogonalEdgeStyle;rounded=0;orthogonalLoop=1;jettySize=auto;html=1;entryX=0;entryY=0.25;entryDx=0;entryDy=0;fontColor=#000000;" parent="1" source="dxDq6lMlbhvPlnrW9h93-36" target="dxDq6lMlbhvPlnrW9h93-40" edge="1">
          <mxGeometry relative="1" as="geometry" />
        </mxCell>
        <mxCell id="dxDq6lMlbhvPlnrW9h93-36" value="&lt;div style=&quot;font-family: &amp;#34;consolas&amp;#34; , &amp;#34;courier new&amp;#34; , monospace ; line-height: 24px&quot;&gt;&lt;font style=&quot;font-size: 10px&quot;&gt;poliList *next&lt;/font&gt;&lt;/div&gt;" style="text;html=1;strokeColor=none;fillColor=none;align=left;verticalAlign=middle;whiteSpace=wrap;rounded=0;labelBackgroundColor=none;" parent="1" vertex="1">
          <mxGeometry x="410" y="75" width="140" height="20" as="geometry" />
        </mxCell>
        <mxCell id="dxDq6lMlbhvPlnrW9h93-37" value="&lt;div style=&quot;font-family: &amp;#34;consolas&amp;#34; , &amp;#34;courier new&amp;#34; , monospace ; line-height: 24px&quot;&gt;&lt;font style=&quot;font-size: 10px&quot;&gt;typeList&amp;nbsp; type&lt;/font&gt;&lt;/div&gt;" style="text;html=1;strokeColor=none;fillColor=none;align=left;verticalAlign=middle;whiteSpace=wrap;rounded=0;labelBackgroundColor=none;" parent="1" vertex="1">
          <mxGeometry x="410" y="95" width="140" height="20" as="geometry" />
        </mxCell>
        <mxCell id="dxDq6lMlbhvPlnrW9h93-58" style="edgeStyle=orthogonalEdgeStyle;rounded=0;orthogonalLoop=1;jettySize=auto;html=1;entryX=0.5;entryY=0;entryDx=0;entryDy=0;fontColor=#000000;" parent="1" source="dxDq6lMlbhvPlnrW9h93-38" target="dxDq6lMlbhvPlnrW9h93-52" edge="1">
          <mxGeometry relative="1" as="geometry" />
        </mxCell>
        <mxCell id="dxDq6lMlbhvPlnrW9h93-38" value="&lt;div style=&quot;font-family: &amp;#34;consolas&amp;#34; , &amp;#34;courier new&amp;#34; , monospace ; line-height: 24px&quot;&gt;&lt;font style=&quot;font-size: 10px&quot;&gt;size_t&amp;nbsp; &amp;nbsp;*data&lt;/font&gt;&lt;/div&gt;" style="text;html=1;strokeColor=none;fillColor=none;align=left;verticalAlign=middle;whiteSpace=wrap;rounded=0;labelBackgroundColor=none;" parent="1" vertex="1">
          <mxGeometry x="410" y="115" width="140" height="20" as="geometry" />
        </mxCell>
        <mxCell id="dxDq6lMlbhvPlnrW9h93-40" value="" style="rounded=0;whiteSpace=wrap;html=1;" parent="1" vertex="1">
          <mxGeometry x="600" y="25" width="160" height="120" as="geometry" />
        </mxCell>
        <mxCell id="dxDq6lMlbhvPlnrW9h93-41" value="poliList" style="text;html=1;strokeColor=none;fillColor=none;align=center;verticalAlign=middle;whiteSpace=wrap;rounded=0;" parent="1" vertex="1">
          <mxGeometry x="615" y="35" width="130" height="20" as="geometry" />
        </mxCell>
        <mxCell id="dxDq6lMlbhvPlnrW9h93-42" value="" style="rounded=0;whiteSpace=wrap;html=1;" parent="1" vertex="1">
          <mxGeometry x="600" y="65" width="160" height="80" as="geometry" />
        </mxCell>
        <mxCell id="dxDq6lMlbhvPlnrW9h93-49" style="edgeStyle=orthogonalEdgeStyle;rounded=0;orthogonalLoop=1;jettySize=auto;html=1;entryX=0;entryY=0.5;entryDx=0;entryDy=0;fontColor=#000000;" parent="1" source="dxDq6lMlbhvPlnrW9h93-43" target="dxDq6lMlbhvPlnrW9h93-47" edge="1">
          <mxGeometry relative="1" as="geometry" />
        </mxCell>
        <mxCell id="dxDq6lMlbhvPlnrW9h93-43" value="&lt;div style=&quot;font-family: &amp;#34;consolas&amp;#34; , &amp;#34;courier new&amp;#34; , monospace ; line-height: 24px&quot;&gt;&lt;font style=&quot;font-size: 10px&quot;&gt;poliList *next&lt;/font&gt;&lt;/div&gt;" style="text;html=1;strokeColor=none;fillColor=none;align=left;verticalAlign=middle;whiteSpace=wrap;rounded=0;labelBackgroundColor=none;" parent="1" vertex="1">
          <mxGeometry x="610" y="75" width="140" height="20" as="geometry" />
        </mxCell>
        <mxCell id="dxDq6lMlbhvPlnrW9h93-44" value="&lt;div style=&quot;font-family: &amp;#34;consolas&amp;#34; , &amp;#34;courier new&amp;#34; , monospace ; line-height: 24px&quot;&gt;&lt;font style=&quot;font-size: 10px&quot;&gt;typeList&amp;nbsp; type&lt;/font&gt;&lt;/div&gt;" style="text;html=1;strokeColor=none;fillColor=none;align=left;verticalAlign=middle;whiteSpace=wrap;rounded=0;labelBackgroundColor=none;" parent="1" vertex="1">
          <mxGeometry x="610" y="95" width="140" height="20" as="geometry" />
        </mxCell>
        <mxCell id="dxDq6lMlbhvPlnrW9h93-65" style="edgeStyle=orthogonalEdgeStyle;rounded=0;orthogonalLoop=1;jettySize=auto;html=1;entryX=0.5;entryY=0;entryDx=0;entryDy=0;fontColor=#000000;" parent="1" source="dxDq6lMlbhvPlnrW9h93-45" target="dxDq6lMlbhvPlnrW9h93-59" edge="1">
          <mxGeometry relative="1" as="geometry" />
        </mxCell>
        <mxCell id="dxDq6lMlbhvPlnrW9h93-45" value="&lt;div style=&quot;font-family: &amp;#34;consolas&amp;#34; , &amp;#34;courier new&amp;#34; , monospace ; line-height: 24px&quot;&gt;&lt;font style=&quot;font-size: 10px&quot;&gt;size_t&amp;nbsp; &amp;nbsp;*data&lt;/font&gt;&lt;/div&gt;" style="text;html=1;strokeColor=none;fillColor=none;align=left;verticalAlign=middle;whiteSpace=wrap;rounded=0;labelBackgroundColor=none;" parent="1" vertex="1">
          <mxGeometry x="610" y="115" width="140" height="20" as="geometry" />
        </mxCell>
        <mxCell id="dxDq6lMlbhvPlnrW9h93-47" value="NULL" style="text;html=1;strokeColor=none;fillColor=none;align=center;verticalAlign=middle;whiteSpace=wrap;rounded=0;labelBackgroundColor=none;fontColor=#000000;" parent="1" vertex="1">
          <mxGeometry x="780" y="75" width="40" height="20" as="geometry" />
        </mxCell>
        <mxCell id="dxDq6lMlbhvPlnrW9h93-52" value="" style="rounded=0;whiteSpace=wrap;html=1;" parent="1" vertex="1">
          <mxGeometry x="500" y="200" width="160" height="120" as="geometry" />
        </mxCell>
        <mxCell id="dxDq6lMlbhvPlnrW9h93-53" value="User" style="text;html=1;strokeColor=none;fillColor=none;align=center;verticalAlign=middle;whiteSpace=wrap;rounded=0;" parent="1" vertex="1">
          <mxGeometry x="515" y="210" width="130" height="20" as="geometry" />
        </mxCell>
        <mxCell id="dxDq6lMlbhvPlnrW9h93-54" value="" style="rounded=0;whiteSpace=wrap;html=1;" parent="1" vertex="1">
          <mxGeometry x="500" y="240" width="160" height="80" as="geometry" />
        </mxCell>
        <mxCell id="dxDq6lMlbhvPlnrW9h93-55" value="&lt;div style=&quot;font-family: &amp;#34;consolas&amp;#34; , &amp;#34;courier new&amp;#34; , monospace ; line-height: 24px&quot;&gt;&lt;font style=&quot;font-size: 10px&quot;&gt;char username[32]&lt;/font&gt;&lt;/div&gt;" style="text;html=1;strokeColor=none;fillColor=none;align=left;verticalAlign=middle;whiteSpace=wrap;rounded=0;labelBackgroundColor=none;" parent="1" vertex="1">
          <mxGeometry x="510" y="250" width="140" height="20" as="geometry" />
        </mxCell>
        <mxCell id="dxDq6lMlbhvPlnrW9h93-56" value="&lt;div style=&quot;font-family: &amp;#34;consolas&amp;#34; , &amp;#34;courier new&amp;#34; , monospace ; line-height: 24px&quot;&gt;&lt;font style=&quot;font-size: 10px&quot;&gt;char hashPassword[128]&lt;/font&gt;&lt;/div&gt;" style="text;html=1;strokeColor=none;fillColor=none;align=left;verticalAlign=middle;whiteSpace=wrap;rounded=0;labelBackgroundColor=none;" parent="1" vertex="1">
          <mxGeometry x="510" y="270" width="140" height="20" as="geometry" />
        </mxCell>
        <mxCell id="dxDq6lMlbhvPlnrW9h93-57" value="&lt;div style=&quot;font-family: &amp;#34;consolas&amp;#34; , &amp;#34;courier new&amp;#34; , monospace ; line-height: 24px&quot;&gt;&lt;font style=&quot;font-size: 10px&quot;&gt;char topicSub[100][32]&lt;/font&gt;&lt;/div&gt;" style="text;html=1;strokeColor=none;fillColor=none;align=left;verticalAlign=middle;whiteSpace=wrap;rounded=0;labelBackgroundColor=none;" parent="1" vertex="1">
          <mxGeometry x="510" y="290" width="140" height="20" as="geometry" />
        </mxCell>
        <mxCell id="dxDq6lMlbhvPlnrW9h93-59" value="" style="rounded=0;whiteSpace=wrap;html=1;" parent="1" vertex="1">
          <mxGeometry x="690" y="200" width="160" height="120" as="geometry" />
        </mxCell>
        <mxCell id="dxDq6lMlbhvPlnrW9h93-60" value="User" style="text;html=1;strokeColor=none;fillColor=none;align=center;verticalAlign=middle;whiteSpace=wrap;rounded=0;" parent="1" vertex="1">
          <mxGeometry x="705" y="210" width="130" height="20" as="geometry" />
        </mxCell>
        <mxCell id="dxDq6lMlbhvPlnrW9h93-61" value="" style="rounded=0;whiteSpace=wrap;html=1;" parent="1" vertex="1">
          <mxGeometry x="690" y="240" width="160" height="80" as="geometry" />
        </mxCell>
        <mxCell id="dxDq6lMlbhvPlnrW9h93-62" value="&lt;div style=&quot;font-family: &amp;#34;consolas&amp;#34; , &amp;#34;courier new&amp;#34; , monospace ; line-height: 24px&quot;&gt;&lt;font style=&quot;font-size: 10px&quot;&gt;char username[32]&lt;/font&gt;&lt;/div&gt;" style="text;html=1;strokeColor=none;fillColor=none;align=left;verticalAlign=middle;whiteSpace=wrap;rounded=0;labelBackgroundColor=none;" parent="1" vertex="1">
          <mxGeometry x="700" y="250" width="140" height="20" as="geometry" />
        </mxCell>
        <mxCell id="dxDq6lMlbhvPlnrW9h93-63" value="&lt;div style=&quot;font-family: &amp;#34;consolas&amp;#34; , &amp;#34;courier new&amp;#34; , monospace ; line-height: 24px&quot;&gt;&lt;font style=&quot;font-size: 10px&quot;&gt;char hashPassword[128]&lt;/font&gt;&lt;/div&gt;" style="text;html=1;strokeColor=none;fillColor=none;align=left;verticalAlign=middle;whiteSpace=wrap;rounded=0;labelBackgroundColor=none;" parent="1" vertex="1">
          <mxGeometry x="700" y="270" width="140" height="20" as="geometry" />
        </mxCell>
        <mxCell id="dxDq6lMlbhvPlnrW9h93-64" value="&lt;div style=&quot;font-family: &amp;#34;consolas&amp;#34; , &amp;#34;courier new&amp;#34; , monospace ; line-height: 24px&quot;&gt;&lt;font style=&quot;font-size: 10px&quot;&gt;char topicSub[100][32]&lt;/font&gt;&lt;/div&gt;" style="text;html=1;strokeColor=none;fillColor=none;align=left;verticalAlign=middle;whiteSpace=wrap;rounded=0;labelBackgroundColor=none;" parent="1" vertex="1">
          <mxGeometry x="700" y="290" width="140" height="20" as="geometry" />
        </mxCell>
        <mxCell id="dxDq6lMlbhvPlnrW9h93-66" value="" style="rounded=0;whiteSpace=wrap;html=1;" parent="1" vertex="1">
          <mxGeometry x="580" y="525" width="160" height="120" as="geometry" />
        </mxCell>
        <mxCell id="dxDq6lMlbhvPlnrW9h93-67" value="Topic" style="text;html=1;strokeColor=none;fillColor=none;align=center;verticalAlign=middle;whiteSpace=wrap;rounded=0;" parent="1" vertex="1">
          <mxGeometry x="595" y="535" width="130" height="20" as="geometry" />
        </mxCell>
        <mxCell id="dxDq6lMlbhvPlnrW9h93-68" value="" style="rounded=0;whiteSpace=wrap;html=1;" parent="1" vertex="1">
          <mxGeometry x="580" y="565" width="160" height="95" as="geometry" />
        </mxCell>
        <mxCell id="dxDq6lMlbhvPlnrW9h93-69" value="&lt;div style=&quot;font-family: &amp;#34;consolas&amp;#34; , &amp;#34;courier new&amp;#34; , monospace ; line-height: 24px&quot;&gt;&lt;font style=&quot;font-size: 10px&quot;&gt;char name[32]&lt;/font&gt;&lt;/div&gt;" style="text;html=1;strokeColor=none;fillColor=none;align=left;verticalAlign=middle;whiteSpace=wrap;rounded=0;labelBackgroundColor=none;" parent="1" vertex="1">
          <mxGeometry x="590" y="575" width="140" height="20" as="geometry" />
        </mxCell>
        <mxCell id="dxDq6lMlbhvPlnrW9h93-208" style="edgeStyle=orthogonalEdgeStyle;rounded=0;orthogonalLoop=1;jettySize=auto;html=1;entryX=0.5;entryY=0;entryDx=0;entryDy=0;fontColor=#000000;" parent="1" source="dxDq6lMlbhvPlnrW9h93-70" target="dxDq6lMlbhvPlnrW9h93-115" edge="1">
          <mxGeometry relative="1" as="geometry">
            <Array as="points">
              <mxPoint x="780" y="605" />
            </Array>
          </mxGeometry>
        </mxCell>
        <mxCell id="dxDq6lMlbhvPlnrW9h93-70" value="&lt;div style=&quot;font-family: &amp;#34;consolas&amp;#34; , &amp;#34;courier new&amp;#34; , monospace ; line-height: 24px&quot;&gt;&lt;font style=&quot;font-size: 10px&quot;&gt;poliList *threads&lt;/font&gt;&lt;/div&gt;" style="text;html=1;strokeColor=none;fillColor=none;align=left;verticalAlign=middle;whiteSpace=wrap;rounded=0;labelBackgroundColor=none;" parent="1" vertex="1">
          <mxGeometry x="590" y="595" width="140" height="20" as="geometry" />
        </mxCell>
        <mxCell id="dxDq6lMlbhvPlnrW9h93-71" value="&lt;div style=&quot;font-family: &amp;#34;consolas&amp;#34; , &amp;#34;courier new&amp;#34; , monospace ; line-height: 24px&quot;&gt;&lt;font style=&quot;font-size: 10px&quot;&gt;char owner[32]&lt;/font&gt;&lt;/div&gt;" style="text;html=1;strokeColor=none;fillColor=none;align=left;verticalAlign=middle;whiteSpace=wrap;rounded=0;labelBackgroundColor=none;" parent="1" vertex="1">
          <mxGeometry x="590" y="615" width="140" height="20" as="geometry" />
        </mxCell>
        <mxCell id="dxDq6lMlbhvPlnrW9h93-73" value="" style="rounded=0;whiteSpace=wrap;html=1;" parent="1" vertex="1">
          <mxGeometry x="140" y="525" width="160" height="120" as="geometry" />
        </mxCell>
        <mxCell id="dxDq6lMlbhvPlnrW9h93-74" value="Topic" style="text;html=1;strokeColor=none;fillColor=none;align=center;verticalAlign=middle;whiteSpace=wrap;rounded=0;" parent="1" vertex="1">
          <mxGeometry x="155" y="535" width="130" height="20" as="geometry" />
        </mxCell>
        <mxCell id="dxDq6lMlbhvPlnrW9h93-75" value="" style="rounded=0;whiteSpace=wrap;html=1;" parent="1" vertex="1">
          <mxGeometry x="140" y="565" width="160" height="95" as="geometry" />
        </mxCell>
        <mxCell id="dxDq6lMlbhvPlnrW9h93-76" value="&lt;div style=&quot;font-family: &amp;#34;consolas&amp;#34; , &amp;#34;courier new&amp;#34; , monospace ; line-height: 24px&quot;&gt;&lt;font style=&quot;font-size: 10px&quot;&gt;char name[32]&lt;/font&gt;&lt;/div&gt;" style="text;html=1;strokeColor=none;fillColor=none;align=left;verticalAlign=middle;whiteSpace=wrap;rounded=0;labelBackgroundColor=none;" parent="1" vertex="1">
          <mxGeometry x="150" y="575" width="140" height="20" as="geometry" />
        </mxCell>
        <mxCell id="dxDq6lMlbhvPlnrW9h93-204" style="edgeStyle=orthogonalEdgeStyle;rounded=0;orthogonalLoop=1;jettySize=auto;html=1;fontColor=#000000;" parent="1" source="dxDq6lMlbhvPlnrW9h93-77" target="dxDq6lMlbhvPlnrW9h93-99" edge="1">
          <mxGeometry relative="1" as="geometry">
            <Array as="points">
              <mxPoint x="305" y="605" />
            </Array>
          </mxGeometry>
        </mxCell>
        <mxCell id="dxDq6lMlbhvPlnrW9h93-77" value="&lt;div style=&quot;font-family: &amp;#34;consolas&amp;#34; , &amp;#34;courier new&amp;#34; , monospace ; line-height: 24px&quot;&gt;&lt;font style=&quot;font-size: 10px&quot;&gt;poliList *threads&lt;/font&gt;&lt;/div&gt;" style="text;html=1;strokeColor=none;fillColor=none;align=left;verticalAlign=middle;whiteSpace=wrap;rounded=0;labelBackgroundColor=none;" parent="1" vertex="1">
          <mxGeometry x="150" y="595" width="140" height="20" as="geometry" />
        </mxCell>
        <mxCell id="dxDq6lMlbhvPlnrW9h93-78" value="&lt;div style=&quot;font-family: &amp;#34;consolas&amp;#34; , &amp;#34;courier new&amp;#34; , monospace ; line-height: 24px&quot;&gt;&lt;font style=&quot;font-size: 10px&quot;&gt;char owner[32]&lt;/font&gt;&lt;/div&gt;" style="text;html=1;strokeColor=none;fillColor=none;align=left;verticalAlign=middle;whiteSpace=wrap;rounded=0;labelBackgroundColor=none;" parent="1" vertex="1">
          <mxGeometry x="150" y="615" width="140" height="20" as="geometry" />
        </mxCell>
        <mxCell id="dxDq6lMlbhvPlnrW9h93-79" value="" style="rounded=0;whiteSpace=wrap;html=1;" parent="1" vertex="1">
          <mxGeometry x="140" y="380" width="160" height="120" as="geometry" />
        </mxCell>
        <mxCell id="dxDq6lMlbhvPlnrW9h93-80" value="poliList" style="text;html=1;strokeColor=none;fillColor=none;align=center;verticalAlign=middle;whiteSpace=wrap;rounded=0;" parent="1" vertex="1">
          <mxGeometry x="155" y="390" width="130" height="20" as="geometry" />
        </mxCell>
        <mxCell id="dxDq6lMlbhvPlnrW9h93-81" value="" style="rounded=0;whiteSpace=wrap;html=1;" parent="1" vertex="1">
          <mxGeometry x="140" y="420" width="160" height="80" as="geometry" />
        </mxCell>
        <mxCell id="dxDq6lMlbhvPlnrW9h93-82" style="edgeStyle=orthogonalEdgeStyle;rounded=0;orthogonalLoop=1;jettySize=auto;html=1;entryX=0;entryY=0.25;entryDx=0;entryDy=0;fontColor=#000000;" parent="1" source="dxDq6lMlbhvPlnrW9h93-83" target="dxDq6lMlbhvPlnrW9h93-86" edge="1">
          <mxGeometry relative="1" as="geometry" />
        </mxCell>
        <mxCell id="dxDq6lMlbhvPlnrW9h93-83" value="&lt;div style=&quot;font-family: &amp;#34;consolas&amp;#34; , &amp;#34;courier new&amp;#34; , monospace ; line-height: 24px&quot;&gt;&lt;font style=&quot;font-size: 10px&quot;&gt;poliList *next&lt;/font&gt;&lt;/div&gt;" style="text;html=1;strokeColor=none;fillColor=none;align=left;verticalAlign=middle;whiteSpace=wrap;rounded=0;labelBackgroundColor=none;" parent="1" vertex="1">
          <mxGeometry x="150" y="430" width="140" height="20" as="geometry" />
        </mxCell>
        <mxCell id="dxDq6lMlbhvPlnrW9h93-84" value="&lt;div style=&quot;font-family: &amp;#34;consolas&amp;#34; , &amp;#34;courier new&amp;#34; , monospace ; line-height: 24px&quot;&gt;&lt;font style=&quot;font-size: 10px&quot;&gt;typeList&amp;nbsp; type&lt;/font&gt;&lt;/div&gt;" style="text;html=1;strokeColor=none;fillColor=none;align=left;verticalAlign=middle;whiteSpace=wrap;rounded=0;labelBackgroundColor=none;" parent="1" vertex="1">
          <mxGeometry x="150" y="450" width="140" height="20" as="geometry" />
        </mxCell>
        <mxCell id="dxDq6lMlbhvPlnrW9h93-98" style="edgeStyle=orthogonalEdgeStyle;rounded=0;orthogonalLoop=1;jettySize=auto;html=1;fontColor=#000000;" parent="1" source="dxDq6lMlbhvPlnrW9h93-85" edge="1">
          <mxGeometry relative="1" as="geometry">
            <mxPoint x="300" y="535" as="targetPoint" />
            <Array as="points">
              <mxPoint x="310" y="480" />
              <mxPoint x="310" y="535" />
            </Array>
          </mxGeometry>
        </mxCell>
        <mxCell id="dxDq6lMlbhvPlnrW9h93-85" value="&lt;div style=&quot;font-family: &amp;#34;consolas&amp;#34; , &amp;#34;courier new&amp;#34; , monospace ; line-height: 24px&quot;&gt;&lt;font style=&quot;font-size: 10px&quot;&gt;size_t&amp;nbsp; &amp;nbsp;*data&lt;/font&gt;&lt;/div&gt;" style="text;html=1;strokeColor=none;fillColor=none;align=left;verticalAlign=middle;whiteSpace=wrap;rounded=0;labelBackgroundColor=none;" parent="1" vertex="1">
          <mxGeometry x="150" y="470" width="140" height="20" as="geometry" />
        </mxCell>
        <mxCell id="dxDq6lMlbhvPlnrW9h93-86" value="" style="rounded=0;whiteSpace=wrap;html=1;" parent="1" vertex="1">
          <mxGeometry x="340" y="380" width="160" height="120" as="geometry" />
        </mxCell>
        <mxCell id="dxDq6lMlbhvPlnrW9h93-87" value="poliList" style="text;html=1;strokeColor=none;fillColor=none;align=center;verticalAlign=middle;whiteSpace=wrap;rounded=0;" parent="1" vertex="1">
          <mxGeometry x="355" y="390" width="130" height="20" as="geometry" />
        </mxCell>
        <mxCell id="dxDq6lMlbhvPlnrW9h93-88" value="" style="rounded=0;whiteSpace=wrap;html=1;" parent="1" vertex="1">
          <mxGeometry x="340" y="420" width="160" height="80" as="geometry" />
        </mxCell>
        <mxCell id="dxDq6lMlbhvPlnrW9h93-89" style="edgeStyle=orthogonalEdgeStyle;rounded=0;orthogonalLoop=1;jettySize=auto;html=1;entryX=0;entryY=0.5;entryDx=0;entryDy=0;fontColor=#000000;" parent="1" source="dxDq6lMlbhvPlnrW9h93-90" target="dxDq6lMlbhvPlnrW9h93-93" edge="1">
          <mxGeometry relative="1" as="geometry" />
        </mxCell>
        <mxCell id="dxDq6lMlbhvPlnrW9h93-90" value="&lt;div style=&quot;font-family: &amp;#34;consolas&amp;#34; , &amp;#34;courier new&amp;#34; , monospace ; line-height: 24px&quot;&gt;&lt;font style=&quot;font-size: 10px&quot;&gt;poliList *next&lt;/font&gt;&lt;/div&gt;" style="text;html=1;strokeColor=none;fillColor=none;align=left;verticalAlign=middle;whiteSpace=wrap;rounded=0;labelBackgroundColor=none;" parent="1" vertex="1">
          <mxGeometry x="350" y="430" width="140" height="20" as="geometry" />
        </mxCell>
        <mxCell id="dxDq6lMlbhvPlnrW9h93-91" value="&lt;div style=&quot;font-family: &amp;#34;consolas&amp;#34; , &amp;#34;courier new&amp;#34; , monospace ; line-height: 24px&quot;&gt;&lt;font style=&quot;font-size: 10px&quot;&gt;typeList&amp;nbsp; type&lt;/font&gt;&lt;/div&gt;" style="text;html=1;strokeColor=none;fillColor=none;align=left;verticalAlign=middle;whiteSpace=wrap;rounded=0;labelBackgroundColor=none;" parent="1" vertex="1">
          <mxGeometry x="350" y="450" width="140" height="20" as="geometry" />
        </mxCell>
        <mxCell id="dxDq6lMlbhvPlnrW9h93-97" style="edgeStyle=orthogonalEdgeStyle;rounded=0;orthogonalLoop=1;jettySize=auto;html=1;entryX=0.5;entryY=0;entryDx=0;entryDy=0;fontColor=#000000;" parent="1" source="dxDq6lMlbhvPlnrW9h93-92" target="dxDq6lMlbhvPlnrW9h93-67" edge="1">
          <mxGeometry relative="1" as="geometry" />
        </mxCell>
        <mxCell id="dxDq6lMlbhvPlnrW9h93-92" value="&lt;div style=&quot;font-family: &amp;#34;consolas&amp;#34; , &amp;#34;courier new&amp;#34; , monospace ; line-height: 24px&quot;&gt;&lt;font style=&quot;font-size: 10px&quot;&gt;size_t&amp;nbsp; &amp;nbsp;*data&lt;/font&gt;&lt;/div&gt;" style="text;html=1;strokeColor=none;fillColor=none;align=left;verticalAlign=middle;whiteSpace=wrap;rounded=0;labelBackgroundColor=none;" parent="1" vertex="1">
          <mxGeometry x="350" y="470" width="140" height="20" as="geometry" />
        </mxCell>
        <mxCell id="dxDq6lMlbhvPlnrW9h93-93" value="NULL" style="text;html=1;strokeColor=none;fillColor=none;align=center;verticalAlign=middle;whiteSpace=wrap;rounded=0;labelBackgroundColor=none;fontColor=#000000;" parent="1" vertex="1">
          <mxGeometry x="520" y="430" width="40" height="20" as="geometry" />
        </mxCell>
        <mxCell id="dxDq6lMlbhvPlnrW9h93-99" value="" style="rounded=0;whiteSpace=wrap;html=1;" parent="1" vertex="1">
          <mxGeometry x="225" y="680" width="160" height="120" as="geometry" />
        </mxCell>
        <mxCell id="dxDq6lMlbhvPlnrW9h93-100" value="poliList" style="text;html=1;strokeColor=none;fillColor=none;align=center;verticalAlign=middle;whiteSpace=wrap;rounded=0;" parent="1" vertex="1">
          <mxGeometry x="240" y="690" width="130" height="20" as="geometry" />
        </mxCell>
        <mxCell id="dxDq6lMlbhvPlnrW9h93-101" value="" style="rounded=0;whiteSpace=wrap;html=1;" parent="1" vertex="1">
          <mxGeometry x="225" y="720" width="160" height="80" as="geometry" />
        </mxCell>
        <mxCell id="dxDq6lMlbhvPlnrW9h93-112" style="edgeStyle=orthogonalEdgeStyle;rounded=0;orthogonalLoop=1;jettySize=auto;html=1;entryX=0;entryY=0.25;entryDx=0;entryDy=0;fontColor=#000000;" parent="1" source="dxDq6lMlbhvPlnrW9h93-102" target="dxDq6lMlbhvPlnrW9h93-106" edge="1">
          <mxGeometry relative="1" as="geometry" />
        </mxCell>
        <mxCell id="dxDq6lMlbhvPlnrW9h93-102" value="&lt;div style=&quot;font-family: &amp;#34;consolas&amp;#34; , &amp;#34;courier new&amp;#34; , monospace ; line-height: 24px&quot;&gt;&lt;font style=&quot;font-size: 10px&quot;&gt;poliList *next&lt;/font&gt;&lt;/div&gt;" style="text;html=1;strokeColor=none;fillColor=none;align=left;verticalAlign=middle;whiteSpace=wrap;rounded=0;labelBackgroundColor=none;" parent="1" vertex="1">
          <mxGeometry x="235" y="730" width="140" height="20" as="geometry" />
        </mxCell>
        <mxCell id="dxDq6lMlbhvPlnrW9h93-205" style="edgeStyle=orthogonalEdgeStyle;rounded=0;orthogonalLoop=1;jettySize=auto;html=1;entryX=0.5;entryY=0;entryDx=0;entryDy=0;fontColor=#000000;" parent="1" source="dxDq6lMlbhvPlnrW9h93-103" target="dxDq6lMlbhvPlnrW9h93-131" edge="1">
          <mxGeometry relative="1" as="geometry">
            <Array as="points">
              <mxPoint x="410" y="760" />
            </Array>
          </mxGeometry>
        </mxCell>
        <mxCell id="dxDq6lMlbhvPlnrW9h93-103" value="&lt;div style=&quot;font-family: &amp;#34;consolas&amp;#34; , &amp;#34;courier new&amp;#34; , monospace ; line-height: 24px&quot;&gt;&lt;font style=&quot;font-size: 10px&quot;&gt;typeList&amp;nbsp; type&lt;/font&gt;&lt;/div&gt;" style="text;html=1;strokeColor=none;fillColor=none;align=left;verticalAlign=middle;whiteSpace=wrap;rounded=0;labelBackgroundColor=none;" parent="1" vertex="1">
          <mxGeometry x="235" y="750" width="140" height="20" as="geometry" />
        </mxCell>
        <mxCell id="dxDq6lMlbhvPlnrW9h93-104" value="&lt;div style=&quot;font-family: &amp;#34;consolas&amp;#34; , &amp;#34;courier new&amp;#34; , monospace ; line-height: 24px&quot;&gt;&lt;font style=&quot;font-size: 10px&quot;&gt;size_t&amp;nbsp; &amp;nbsp;*data&lt;/font&gt;&lt;/div&gt;" style="text;html=1;strokeColor=none;fillColor=none;align=left;verticalAlign=middle;whiteSpace=wrap;rounded=0;labelBackgroundColor=none;" parent="1" vertex="1">
          <mxGeometry x="235" y="770" width="140" height="20" as="geometry" />
        </mxCell>
        <mxCell id="dxDq6lMlbhvPlnrW9h93-106" value="" style="rounded=0;whiteSpace=wrap;html=1;" parent="1" vertex="1">
          <mxGeometry x="425" y="680" width="160" height="120" as="geometry" />
        </mxCell>
        <mxCell id="dxDq6lMlbhvPlnrW9h93-107" value="poliList" style="text;html=1;strokeColor=none;fillColor=none;align=center;verticalAlign=middle;whiteSpace=wrap;rounded=0;" parent="1" vertex="1">
          <mxGeometry x="440" y="690" width="130" height="20" as="geometry" />
        </mxCell>
        <mxCell id="dxDq6lMlbhvPlnrW9h93-108" value="" style="rounded=0;whiteSpace=wrap;html=1;" parent="1" vertex="1">
          <mxGeometry x="425" y="720" width="160" height="80" as="geometry" />
        </mxCell>
        <mxCell id="dxDq6lMlbhvPlnrW9h93-114" style="edgeStyle=orthogonalEdgeStyle;rounded=0;orthogonalLoop=1;jettySize=auto;html=1;fontColor=#000000;" parent="1" source="dxDq6lMlbhvPlnrW9h93-109" target="dxDq6lMlbhvPlnrW9h93-113" edge="1">
          <mxGeometry relative="1" as="geometry" />
        </mxCell>
        <mxCell id="dxDq6lMlbhvPlnrW9h93-109" value="&lt;div style=&quot;font-family: &amp;#34;consolas&amp;#34; , &amp;#34;courier new&amp;#34; , monospace ; line-height: 24px&quot;&gt;&lt;font style=&quot;font-size: 10px&quot;&gt;poliList *next&lt;/font&gt;&lt;/div&gt;" style="text;html=1;strokeColor=none;fillColor=none;align=left;verticalAlign=middle;whiteSpace=wrap;rounded=0;labelBackgroundColor=none;" parent="1" vertex="1">
          <mxGeometry x="435" y="730" width="140" height="20" as="geometry" />
        </mxCell>
        <mxCell id="dxDq6lMlbhvPlnrW9h93-206" style="edgeStyle=orthogonalEdgeStyle;rounded=0;orthogonalLoop=1;jettySize=auto;html=1;entryX=0.5;entryY=0;entryDx=0;entryDy=0;fontColor=#000000;" parent="1" source="dxDq6lMlbhvPlnrW9h93-110" target="dxDq6lMlbhvPlnrW9h93-139" edge="1">
          <mxGeometry relative="1" as="geometry">
            <Array as="points">
              <mxPoint x="610" y="760" />
            </Array>
          </mxGeometry>
        </mxCell>
        <mxCell id="dxDq6lMlbhvPlnrW9h93-110" value="&lt;div style=&quot;font-family: &amp;#34;consolas&amp;#34; , &amp;#34;courier new&amp;#34; , monospace ; line-height: 24px&quot;&gt;&lt;font style=&quot;font-size: 10px&quot;&gt;typeList&amp;nbsp; type&lt;/font&gt;&lt;/div&gt;" style="text;html=1;strokeColor=none;fillColor=none;align=left;verticalAlign=middle;whiteSpace=wrap;rounded=0;labelBackgroundColor=none;" parent="1" vertex="1">
          <mxGeometry x="435" y="750" width="140" height="20" as="geometry" />
        </mxCell>
        <mxCell id="dxDq6lMlbhvPlnrW9h93-111" value="&lt;div style=&quot;font-family: &amp;#34;consolas&amp;#34; , &amp;#34;courier new&amp;#34; , monospace ; line-height: 24px&quot;&gt;&lt;font style=&quot;font-size: 10px&quot;&gt;size_t&amp;nbsp; &amp;nbsp;*data&lt;/font&gt;&lt;/div&gt;" style="text;html=1;strokeColor=none;fillColor=none;align=left;verticalAlign=middle;whiteSpace=wrap;rounded=0;labelBackgroundColor=none;" parent="1" vertex="1">
          <mxGeometry x="435" y="770" width="140" height="20" as="geometry" />
        </mxCell>
        <mxCell id="dxDq6lMlbhvPlnrW9h93-113" value="NULL" style="text;html=1;strokeColor=none;fillColor=none;align=center;verticalAlign=middle;whiteSpace=wrap;rounded=0;labelBackgroundColor=none;fontColor=#000000;" parent="1" vertex="1">
          <mxGeometry x="605" y="730" width="40" height="20" as="geometry" />
        </mxCell>
        <mxCell id="dxDq6lMlbhvPlnrW9h93-115" value="" style="rounded=0;whiteSpace=wrap;html=1;" parent="1" vertex="1">
          <mxGeometry x="700" y="680" width="160" height="120" as="geometry" />
        </mxCell>
        <mxCell id="dxDq6lMlbhvPlnrW9h93-116" value="poliList" style="text;html=1;strokeColor=none;fillColor=none;align=center;verticalAlign=middle;whiteSpace=wrap;rounded=0;" parent="1" vertex="1">
          <mxGeometry x="715" y="690" width="130" height="20" as="geometry" />
        </mxCell>
        <mxCell id="dxDq6lMlbhvPlnrW9h93-117" value="" style="rounded=0;whiteSpace=wrap;html=1;" parent="1" vertex="1">
          <mxGeometry x="700" y="720" width="160" height="80" as="geometry" />
        </mxCell>
        <mxCell id="dxDq6lMlbhvPlnrW9h93-209" style="edgeStyle=orthogonalEdgeStyle;rounded=0;orthogonalLoop=1;jettySize=auto;html=1;fontColor=#000000;" parent="1" source="dxDq6lMlbhvPlnrW9h93-119" target="dxDq6lMlbhvPlnrW9h93-129" edge="1">
          <mxGeometry relative="1" as="geometry" />
        </mxCell>
        <mxCell id="dxDq6lMlbhvPlnrW9h93-119" value="&lt;div style=&quot;font-family: &amp;#34;consolas&amp;#34; , &amp;#34;courier new&amp;#34; , monospace ; line-height: 24px&quot;&gt;&lt;font style=&quot;font-size: 10px&quot;&gt;poliList *next&lt;/font&gt;&lt;/div&gt;" style="text;html=1;strokeColor=none;fillColor=none;align=left;verticalAlign=middle;whiteSpace=wrap;rounded=0;labelBackgroundColor=none;" parent="1" vertex="1">
          <mxGeometry x="710" y="730" width="140" height="20" as="geometry" />
        </mxCell>
        <mxCell id="dxDq6lMlbhvPlnrW9h93-120" value="&lt;div style=&quot;font-family: &amp;#34;consolas&amp;#34; , &amp;#34;courier new&amp;#34; , monospace ; line-height: 24px&quot;&gt;&lt;font style=&quot;font-size: 10px&quot;&gt;typeList&amp;nbsp; type&lt;/font&gt;&lt;/div&gt;" style="text;html=1;strokeColor=none;fillColor=none;align=left;verticalAlign=middle;whiteSpace=wrap;rounded=0;labelBackgroundColor=none;" parent="1" vertex="1">
          <mxGeometry x="710" y="750" width="140" height="20" as="geometry" />
        </mxCell>
        <mxCell id="dxDq6lMlbhvPlnrW9h93-165" style="edgeStyle=orthogonalEdgeStyle;rounded=0;orthogonalLoop=1;jettySize=auto;html=1;entryX=0.5;entryY=0;entryDx=0;entryDy=0;fontColor=#000000;" parent="1" source="dxDq6lMlbhvPlnrW9h93-121" target="dxDq6lMlbhvPlnrW9h93-149" edge="1">
          <mxGeometry relative="1" as="geometry">
            <Array as="points">
              <mxPoint x="880" y="780" />
            </Array>
          </mxGeometry>
        </mxCell>
        <mxCell id="dxDq6lMlbhvPlnrW9h93-121" value="&lt;div style=&quot;font-family: &amp;#34;consolas&amp;#34; , &amp;#34;courier new&amp;#34; , monospace ; line-height: 24px&quot;&gt;&lt;font style=&quot;font-size: 10px&quot;&gt;size_t&amp;nbsp; &amp;nbsp;*data&lt;/font&gt;&lt;/div&gt;" style="text;html=1;strokeColor=none;fillColor=none;align=left;verticalAlign=middle;whiteSpace=wrap;rounded=0;labelBackgroundColor=none;" parent="1" vertex="1">
          <mxGeometry x="710" y="770" width="140" height="20" as="geometry" />
        </mxCell>
        <mxCell id="dxDq6lMlbhvPlnrW9h93-129" value="NULL" style="text;html=1;strokeColor=none;fillColor=none;align=center;verticalAlign=middle;whiteSpace=wrap;rounded=0;labelBackgroundColor=none;fontColor=#000000;" parent="1" vertex="1">
          <mxGeometry x="880" y="730" width="40" height="20" as="geometry" />
        </mxCell>
        <mxCell id="dxDq6lMlbhvPlnrW9h93-131" value="" style="rounded=0;whiteSpace=wrap;html=1;" parent="1" vertex="1">
          <mxGeometry x="330" y="880" width="160" height="120" as="geometry" />
        </mxCell>
        <mxCell id="dxDq6lMlbhvPlnrW9h93-132" value="Thread" style="text;html=1;strokeColor=none;fillColor=none;align=center;verticalAlign=middle;whiteSpace=wrap;rounded=0;" parent="1" vertex="1">
          <mxGeometry x="345" y="890" width="130" height="20" as="geometry" />
        </mxCell>
        <mxCell id="dxDq6lMlbhvPlnrW9h93-133" value="" style="rounded=0;whiteSpace=wrap;html=1;" parent="1" vertex="1">
          <mxGeometry x="330" y="920" width="160" height="140" as="geometry" />
        </mxCell>
        <mxCell id="dxDq6lMlbhvPlnrW9h93-134" value="&lt;div style=&quot;font-family: &amp;#34;consolas&amp;#34; , &amp;#34;courier new&amp;#34; , monospace ; line-height: 24px&quot;&gt;&lt;font style=&quot;font-size: 10px&quot;&gt;char uuid[37]&lt;/font&gt;&lt;/div&gt;" style="text;html=1;strokeColor=none;fillColor=none;align=left;verticalAlign=middle;whiteSpace=wrap;rounded=0;labelBackgroundColor=none;" parent="1" vertex="1">
          <mxGeometry x="340" y="930" width="140" height="20" as="geometry" />
        </mxCell>
        <mxCell id="dxDq6lMlbhvPlnrW9h93-135" value="&lt;div style=&quot;font-family: &amp;#34;consolas&amp;#34; , &amp;#34;courier new&amp;#34; , monospace ; line-height: 24px&quot;&gt;&lt;font style=&quot;font-size: 10px&quot;&gt;char title[32]&lt;/font&gt;&lt;/div&gt;" style="text;html=1;strokeColor=none;fillColor=none;align=left;verticalAlign=middle;whiteSpace=wrap;rounded=0;labelBackgroundColor=none;" parent="1" vertex="1">
          <mxGeometry x="340" y="950" width="140" height="20" as="geometry" />
        </mxCell>
        <mxCell id="dxDq6lMlbhvPlnrW9h93-136" value="&lt;div style=&quot;font-family: &amp;#34;consolas&amp;#34; , &amp;#34;courier new&amp;#34; , monospace ; line-height: 24px&quot;&gt;&lt;font style=&quot;font-size: 10px&quot;&gt;char message[512]&lt;/font&gt;&lt;/div&gt;" style="text;html=1;strokeColor=none;fillColor=none;align=left;verticalAlign=middle;whiteSpace=wrap;rounded=0;labelBackgroundColor=none;" parent="1" vertex="1">
          <mxGeometry x="340" y="970" width="140" height="20" as="geometry" />
        </mxCell>
        <mxCell id="dxDq6lMlbhvPlnrW9h93-207" style="edgeStyle=orthogonalEdgeStyle;rounded=0;orthogonalLoop=1;jettySize=auto;html=1;entryX=0.5;entryY=0;entryDx=0;entryDy=0;fontColor=#000000;" parent="1" source="dxDq6lMlbhvPlnrW9h93-137" target="dxDq6lMlbhvPlnrW9h93-173" edge="1">
          <mxGeometry relative="1" as="geometry">
            <Array as="points">
              <mxPoint x="505" y="1000" />
            </Array>
          </mxGeometry>
        </mxCell>
        <mxCell id="dxDq6lMlbhvPlnrW9h93-137" value="&lt;div style=&quot;font-family: &amp;#34;consolas&amp;#34; , &amp;#34;courier new&amp;#34; , monospace ; line-height: 24px&quot;&gt;&lt;font style=&quot;font-size: 10px&quot;&gt;char owner[32]&lt;/font&gt;&lt;/div&gt;" style="text;html=1;strokeColor=none;fillColor=none;align=left;verticalAlign=middle;whiteSpace=wrap;rounded=0;labelBackgroundColor=none;" parent="1" vertex="1">
          <mxGeometry x="340" y="990" width="140" height="20" as="geometry" />
        </mxCell>
        <mxCell id="dxDq6lMlbhvPlnrW9h93-138" value="&lt;div style=&quot;font-family: &amp;#34;consolas&amp;#34; , &amp;#34;courier new&amp;#34; , monospace ; line-height: 24px&quot;&gt;&lt;font style=&quot;font-size: 10px&quot;&gt;poliList *replies&lt;/font&gt;&lt;/div&gt;" style="text;html=1;strokeColor=none;fillColor=none;align=left;verticalAlign=middle;whiteSpace=wrap;rounded=0;labelBackgroundColor=none;" parent="1" vertex="1">
          <mxGeometry x="340" y="1010" width="140" height="20" as="geometry" />
        </mxCell>
        <mxCell id="dxDq6lMlbhvPlnrW9h93-139" value="" style="rounded=0;whiteSpace=wrap;html=1;" parent="1" vertex="1">
          <mxGeometry x="530" y="880" width="160" height="120" as="geometry" />
        </mxCell>
        <mxCell id="dxDq6lMlbhvPlnrW9h93-140" value="Thread" style="text;html=1;strokeColor=none;fillColor=none;align=center;verticalAlign=middle;whiteSpace=wrap;rounded=0;" parent="1" vertex="1">
          <mxGeometry x="545" y="890" width="130" height="20" as="geometry" />
        </mxCell>
        <mxCell id="dxDq6lMlbhvPlnrW9h93-141" value="" style="rounded=0;whiteSpace=wrap;html=1;" parent="1" vertex="1">
          <mxGeometry x="530" y="920" width="160" height="140" as="geometry" />
        </mxCell>
        <mxCell id="dxDq6lMlbhvPlnrW9h93-142" value="&lt;div style=&quot;font-family: &amp;#34;consolas&amp;#34; , &amp;#34;courier new&amp;#34; , monospace ; line-height: 24px&quot;&gt;&lt;font style=&quot;font-size: 10px&quot;&gt;char uuid[37]&lt;/font&gt;&lt;/div&gt;" style="text;html=1;strokeColor=none;fillColor=none;align=left;verticalAlign=middle;whiteSpace=wrap;rounded=0;labelBackgroundColor=none;" parent="1" vertex="1">
          <mxGeometry x="540" y="930" width="140" height="20" as="geometry" />
        </mxCell>
        <mxCell id="dxDq6lMlbhvPlnrW9h93-143" value="&lt;div style=&quot;font-family: &amp;#34;consolas&amp;#34; , &amp;#34;courier new&amp;#34; , monospace ; line-height: 24px&quot;&gt;&lt;font style=&quot;font-size: 10px&quot;&gt;char title[32]&lt;/font&gt;&lt;/div&gt;" style="text;html=1;strokeColor=none;fillColor=none;align=left;verticalAlign=middle;whiteSpace=wrap;rounded=0;labelBackgroundColor=none;" parent="1" vertex="1">
          <mxGeometry x="540" y="950" width="140" height="20" as="geometry" />
        </mxCell>
        <mxCell id="dxDq6lMlbhvPlnrW9h93-144" value="&lt;div style=&quot;font-family: &amp;#34;consolas&amp;#34; , &amp;#34;courier new&amp;#34; , monospace ; line-height: 24px&quot;&gt;&lt;font style=&quot;font-size: 10px&quot;&gt;char message[512]&lt;/font&gt;&lt;/div&gt;" style="text;html=1;strokeColor=none;fillColor=none;align=left;verticalAlign=middle;whiteSpace=wrap;rounded=0;labelBackgroundColor=none;" parent="1" vertex="1">
          <mxGeometry x="540" y="970" width="140" height="20" as="geometry" />
        </mxCell>
        <mxCell id="dxDq6lMlbhvPlnrW9h93-145" value="&lt;div style=&quot;font-family: &amp;#34;consolas&amp;#34; , &amp;#34;courier new&amp;#34; , monospace ; line-height: 24px&quot;&gt;&lt;font style=&quot;font-size: 10px&quot;&gt;char owner[32]&lt;/font&gt;&lt;/div&gt;" style="text;html=1;strokeColor=none;fillColor=none;align=left;verticalAlign=middle;whiteSpace=wrap;rounded=0;labelBackgroundColor=none;" parent="1" vertex="1">
          <mxGeometry x="540" y="990" width="140" height="20" as="geometry" />
        </mxCell>
        <mxCell id="dxDq6lMlbhvPlnrW9h93-168" style="edgeStyle=orthogonalEdgeStyle;rounded=0;orthogonalLoop=1;jettySize=auto;html=1;fontColor=#000000;" parent="1" source="dxDq6lMlbhvPlnrW9h93-146" edge="1">
          <mxGeometry relative="1" as="geometry">
            <mxPoint x="710" y="1020" as="targetPoint" />
          </mxGeometry>
        </mxCell>
        <mxCell id="dxDq6lMlbhvPlnrW9h93-146" value="&lt;div style=&quot;font-family: &amp;#34;consolas&amp;#34; , &amp;#34;courier new&amp;#34; , monospace ; line-height: 24px&quot;&gt;&lt;font style=&quot;font-size: 10px&quot;&gt;poliList *replies&lt;/font&gt;&lt;/div&gt;" style="text;html=1;strokeColor=none;fillColor=none;align=left;verticalAlign=middle;whiteSpace=wrap;rounded=0;labelBackgroundColor=none;" parent="1" vertex="1">
          <mxGeometry x="540" y="1010" width="140" height="20" as="geometry" />
        </mxCell>
        <mxCell id="dxDq6lMlbhvPlnrW9h93-149" value="" style="rounded=0;whiteSpace=wrap;html=1;" parent="1" vertex="1">
          <mxGeometry x="800" y="880" width="160" height="120" as="geometry" />
        </mxCell>
        <mxCell id="dxDq6lMlbhvPlnrW9h93-150" value="Thread" style="text;html=1;strokeColor=none;fillColor=none;align=center;verticalAlign=middle;whiteSpace=wrap;rounded=0;" parent="1" vertex="1">
          <mxGeometry x="815" y="890" width="130" height="20" as="geometry" />
        </mxCell>
        <mxCell id="dxDq6lMlbhvPlnrW9h93-151" value="" style="rounded=0;whiteSpace=wrap;html=1;" parent="1" vertex="1">
          <mxGeometry x="800" y="920" width="160" height="140" as="geometry" />
        </mxCell>
        <mxCell id="dxDq6lMlbhvPlnrW9h93-152" value="&lt;div style=&quot;font-family: &amp;#34;consolas&amp;#34; , &amp;#34;courier new&amp;#34; , monospace ; line-height: 24px&quot;&gt;&lt;font style=&quot;font-size: 10px&quot;&gt;char uuid[37]&lt;/font&gt;&lt;/div&gt;" style="text;html=1;strokeColor=none;fillColor=none;align=left;verticalAlign=middle;whiteSpace=wrap;rounded=0;labelBackgroundColor=none;" parent="1" vertex="1">
          <mxGeometry x="810" y="930" width="140" height="20" as="geometry" />
        </mxCell>
        <mxCell id="dxDq6lMlbhvPlnrW9h93-153" value="&lt;div style=&quot;font-family: &amp;#34;consolas&amp;#34; , &amp;#34;courier new&amp;#34; , monospace ; line-height: 24px&quot;&gt;&lt;font style=&quot;font-size: 10px&quot;&gt;char title[32]&lt;/font&gt;&lt;/div&gt;" style="text;html=1;strokeColor=none;fillColor=none;align=left;verticalAlign=middle;whiteSpace=wrap;rounded=0;labelBackgroundColor=none;" parent="1" vertex="1">
          <mxGeometry x="810" y="950" width="140" height="20" as="geometry" />
        </mxCell>
        <mxCell id="dxDq6lMlbhvPlnrW9h93-154" value="&lt;div style=&quot;font-family: &amp;#34;consolas&amp;#34; , &amp;#34;courier new&amp;#34; , monospace ; line-height: 24px&quot;&gt;&lt;font style=&quot;font-size: 10px&quot;&gt;char message[512]&lt;/font&gt;&lt;/div&gt;" style="text;html=1;strokeColor=none;fillColor=none;align=left;verticalAlign=middle;whiteSpace=wrap;rounded=0;labelBackgroundColor=none;" parent="1" vertex="1">
          <mxGeometry x="810" y="970" width="140" height="20" as="geometry" />
        </mxCell>
        <mxCell id="dxDq6lMlbhvPlnrW9h93-155" value="&lt;div style=&quot;font-family: &amp;#34;consolas&amp;#34; , &amp;#34;courier new&amp;#34; , monospace ; line-height: 24px&quot;&gt;&lt;font style=&quot;font-size: 10px&quot;&gt;char owner[32]&lt;/font&gt;&lt;/div&gt;" style="text;html=1;strokeColor=none;fillColor=none;align=left;verticalAlign=middle;whiteSpace=wrap;rounded=0;labelBackgroundColor=none;" parent="1" vertex="1">
          <mxGeometry x="810" y="990" width="140" height="20" as="geometry" />
        </mxCell>
        <mxCell id="dxDq6lMlbhvPlnrW9h93-172" style="edgeStyle=orthogonalEdgeStyle;rounded=0;orthogonalLoop=1;jettySize=auto;html=1;fontColor=#000000;" parent="1" source="dxDq6lMlbhvPlnrW9h93-156" target="dxDq6lMlbhvPlnrW9h93-169" edge="1">
          <mxGeometry relative="1" as="geometry" />
        </mxCell>
        <mxCell id="dxDq6lMlbhvPlnrW9h93-156" value="&lt;div style=&quot;font-family: &amp;#34;consolas&amp;#34; , &amp;#34;courier new&amp;#34; , monospace ; line-height: 24px&quot;&gt;&lt;font style=&quot;font-size: 10px&quot;&gt;poliList *replies&lt;/font&gt;&lt;/div&gt;" style="text;html=1;strokeColor=none;fillColor=none;align=left;verticalAlign=middle;whiteSpace=wrap;rounded=0;labelBackgroundColor=none;" parent="1" vertex="1">
          <mxGeometry x="810" y="1010" width="140" height="20" as="geometry" />
        </mxCell>
        <mxCell id="dxDq6lMlbhvPlnrW9h93-167" value="NULL" style="text;html=1;strokeColor=none;fillColor=none;align=center;verticalAlign=middle;whiteSpace=wrap;rounded=0;labelBackgroundColor=none;fontColor=#000000;" parent="1" vertex="1">
          <mxGeometry x="710" y="1010" width="40" height="20" as="geometry" />
        </mxCell>
        <mxCell id="dxDq6lMlbhvPlnrW9h93-169" value="NULL" style="text;html=1;strokeColor=none;fillColor=none;align=center;verticalAlign=middle;whiteSpace=wrap;rounded=0;labelBackgroundColor=none;fontColor=#000000;" parent="1" vertex="1">
          <mxGeometry x="980" y="1010" width="40" height="20" as="geometry" />
        </mxCell>
        <mxCell id="dxDq6lMlbhvPlnrW9h93-173" value="" style="rounded=0;whiteSpace=wrap;html=1;" parent="1" vertex="1">
          <mxGeometry x="425" y="1090" width="160" height="120" as="geometry" />
        </mxCell>
        <mxCell id="dxDq6lMlbhvPlnrW9h93-174" value="poliList" style="text;html=1;strokeColor=none;fillColor=none;align=center;verticalAlign=middle;whiteSpace=wrap;rounded=0;" parent="1" vertex="1">
          <mxGeometry x="440" y="1100" width="130" height="20" as="geometry" />
        </mxCell>
        <mxCell id="dxDq6lMlbhvPlnrW9h93-175" value="" style="rounded=0;whiteSpace=wrap;html=1;" parent="1" vertex="1">
          <mxGeometry x="425" y="1130" width="160" height="80" as="geometry" />
        </mxCell>
        <mxCell id="dxDq6lMlbhvPlnrW9h93-176" style="edgeStyle=orthogonalEdgeStyle;rounded=0;orthogonalLoop=1;jettySize=auto;html=1;entryX=0;entryY=0.25;entryDx=0;entryDy=0;fontColor=#000000;" parent="1" source="dxDq6lMlbhvPlnrW9h93-177" target="dxDq6lMlbhvPlnrW9h93-180" edge="1">
          <mxGeometry relative="1" as="geometry" />
        </mxCell>
        <mxCell id="dxDq6lMlbhvPlnrW9h93-177" value="&lt;div style=&quot;font-family: &amp;#34;consolas&amp;#34; , &amp;#34;courier new&amp;#34; , monospace ; line-height: 24px&quot;&gt;&lt;font style=&quot;font-size: 10px&quot;&gt;poliList *next&lt;/font&gt;&lt;/div&gt;" style="text;html=1;strokeColor=none;fillColor=none;align=left;verticalAlign=middle;whiteSpace=wrap;rounded=0;labelBackgroundColor=none;" parent="1" vertex="1">
          <mxGeometry x="435" y="1140" width="140" height="20" as="geometry" />
        </mxCell>
        <mxCell id="dxDq6lMlbhvPlnrW9h93-178" value="&lt;div style=&quot;font-family: &amp;#34;consolas&amp;#34; , &amp;#34;courier new&amp;#34; , monospace ; line-height: 24px&quot;&gt;&lt;font style=&quot;font-size: 10px&quot;&gt;typeList&amp;nbsp; type&lt;/font&gt;&lt;/div&gt;" style="text;html=1;strokeColor=none;fillColor=none;align=left;verticalAlign=middle;whiteSpace=wrap;rounded=0;labelBackgroundColor=none;" parent="1" vertex="1">
          <mxGeometry x="435" y="1160" width="140" height="20" as="geometry" />
        </mxCell>
        <mxCell id="dxDq6lMlbhvPlnrW9h93-202" style="edgeStyle=orthogonalEdgeStyle;rounded=0;orthogonalLoop=1;jettySize=auto;html=1;entryX=0.5;entryY=0;entryDx=0;entryDy=0;fontColor=#000000;" parent="1" source="dxDq6lMlbhvPlnrW9h93-179" target="dxDq6lMlbhvPlnrW9h93-189" edge="1">
          <mxGeometry relative="1" as="geometry">
            <Array as="points">
              <mxPoint x="605" y="1190" />
            </Array>
          </mxGeometry>
        </mxCell>
        <mxCell id="dxDq6lMlbhvPlnrW9h93-179" value="&lt;div style=&quot;font-family: &amp;#34;consolas&amp;#34; , &amp;#34;courier new&amp;#34; , monospace ; line-height: 24px&quot;&gt;&lt;font style=&quot;font-size: 10px&quot;&gt;size_t&amp;nbsp; &amp;nbsp;*data&lt;/font&gt;&lt;/div&gt;" style="text;html=1;strokeColor=none;fillColor=none;align=left;verticalAlign=middle;whiteSpace=wrap;rounded=0;labelBackgroundColor=none;" parent="1" vertex="1">
          <mxGeometry x="435" y="1180" width="140" height="20" as="geometry" />
        </mxCell>
        <mxCell id="dxDq6lMlbhvPlnrW9h93-180" value="" style="rounded=0;whiteSpace=wrap;html=1;" parent="1" vertex="1">
          <mxGeometry x="625" y="1090" width="160" height="120" as="geometry" />
        </mxCell>
        <mxCell id="dxDq6lMlbhvPlnrW9h93-181" value="poliList" style="text;html=1;strokeColor=none;fillColor=none;align=center;verticalAlign=middle;whiteSpace=wrap;rounded=0;" parent="1" vertex="1">
          <mxGeometry x="640" y="1100" width="130" height="20" as="geometry" />
        </mxCell>
        <mxCell id="dxDq6lMlbhvPlnrW9h93-182" value="" style="rounded=0;whiteSpace=wrap;html=1;" parent="1" vertex="1">
          <mxGeometry x="625" y="1130" width="160" height="80" as="geometry" />
        </mxCell>
        <mxCell id="dxDq6lMlbhvPlnrW9h93-183" style="edgeStyle=orthogonalEdgeStyle;rounded=0;orthogonalLoop=1;jettySize=auto;html=1;fontColor=#000000;" parent="1" source="dxDq6lMlbhvPlnrW9h93-184" edge="1">
          <mxGeometry relative="1" as="geometry">
            <mxPoint x="805" y="1150" as="targetPoint" />
          </mxGeometry>
        </mxCell>
        <mxCell id="dxDq6lMlbhvPlnrW9h93-184" value="&lt;div style=&quot;font-family: &amp;#34;consolas&amp;#34; , &amp;#34;courier new&amp;#34; , monospace ; line-height: 24px&quot;&gt;&lt;font style=&quot;font-size: 10px&quot;&gt;poliList *next&lt;/font&gt;&lt;/div&gt;" style="text;html=1;strokeColor=none;fillColor=none;align=left;verticalAlign=middle;whiteSpace=wrap;rounded=0;labelBackgroundColor=none;" parent="1" vertex="1">
          <mxGeometry x="635" y="1140" width="140" height="20" as="geometry" />
        </mxCell>
        <mxCell id="dxDq6lMlbhvPlnrW9h93-185" value="&lt;div style=&quot;font-family: &amp;#34;consolas&amp;#34; , &amp;#34;courier new&amp;#34; , monospace ; line-height: 24px&quot;&gt;&lt;font style=&quot;font-size: 10px&quot;&gt;typeList&amp;nbsp; type&lt;/font&gt;&lt;/div&gt;" style="text;html=1;strokeColor=none;fillColor=none;align=left;verticalAlign=middle;whiteSpace=wrap;rounded=0;labelBackgroundColor=none;" parent="1" vertex="1">
          <mxGeometry x="635" y="1160" width="140" height="20" as="geometry" />
        </mxCell>
        <mxCell id="dxDq6lMlbhvPlnrW9h93-201" style="edgeStyle=orthogonalEdgeStyle;rounded=0;orthogonalLoop=1;jettySize=auto;html=1;entryX=0.5;entryY=0;entryDx=0;entryDy=0;fontColor=#000000;" parent="1" source="dxDq6lMlbhvPlnrW9h93-186" target="dxDq6lMlbhvPlnrW9h93-196" edge="1">
          <mxGeometry relative="1" as="geometry">
            <Array as="points">
              <mxPoint x="825" y="1190" />
            </Array>
          </mxGeometry>
        </mxCell>
        <mxCell id="dxDq6lMlbhvPlnrW9h93-186" value="&lt;div style=&quot;font-family: &amp;#34;consolas&amp;#34; , &amp;#34;courier new&amp;#34; , monospace ; line-height: 24px&quot;&gt;&lt;font style=&quot;font-size: 10px&quot;&gt;size_t&amp;nbsp; &amp;nbsp;*data&lt;/font&gt;&lt;/div&gt;" style="text;html=1;strokeColor=none;fillColor=none;align=left;verticalAlign=middle;whiteSpace=wrap;rounded=0;labelBackgroundColor=none;" parent="1" vertex="1">
          <mxGeometry x="635" y="1180" width="140" height="20" as="geometry" />
        </mxCell>
        <mxCell id="dxDq6lMlbhvPlnrW9h93-188" value="NULL" style="text;html=1;strokeColor=none;fillColor=none;align=center;verticalAlign=middle;whiteSpace=wrap;rounded=0;labelBackgroundColor=none;fontColor=#000000;" parent="1" vertex="1">
          <mxGeometry x="805" y="1140" width="40" height="20" as="geometry" />
        </mxCell>
        <mxCell id="dxDq6lMlbhvPlnrW9h93-189" value="" style="rounded=0;whiteSpace=wrap;html=1;" parent="1" vertex="1">
          <mxGeometry x="525" y="1250" width="160" height="100" as="geometry" />
        </mxCell>
        <mxCell id="dxDq6lMlbhvPlnrW9h93-190" value="Reply" style="text;html=1;strokeColor=none;fillColor=none;align=center;verticalAlign=middle;whiteSpace=wrap;rounded=0;" parent="1" vertex="1">
          <mxGeometry x="540" y="1260" width="130" height="20" as="geometry" />
        </mxCell>
        <mxCell id="dxDq6lMlbhvPlnrW9h93-191" value="" style="rounded=0;whiteSpace=wrap;html=1;" parent="1" vertex="1">
          <mxGeometry x="525" y="1290" width="160" height="80" as="geometry" />
        </mxCell>
        <mxCell id="dxDq6lMlbhvPlnrW9h93-192" value="&lt;div style=&quot;font-family: &amp;#34;consolas&amp;#34; , &amp;#34;courier new&amp;#34; , monospace ; line-height: 24px&quot;&gt;&lt;font style=&quot;font-size: 10px&quot;&gt;char message[512]&lt;/font&gt;&lt;/div&gt;" style="text;html=1;strokeColor=none;fillColor=none;align=left;verticalAlign=middle;whiteSpace=wrap;rounded=0;labelBackgroundColor=none;" parent="1" vertex="1">
          <mxGeometry x="535" y="1300" width="140" height="20" as="geometry" />
        </mxCell>
        <mxCell id="dxDq6lMlbhvPlnrW9h93-195" value="&lt;div style=&quot;font-family: &amp;#34;consolas&amp;#34; , &amp;#34;courier new&amp;#34; , monospace ; line-height: 24px&quot;&gt;&lt;font style=&quot;font-size: 10px&quot;&gt;char owner[32]&lt;/font&gt;&lt;/div&gt;" style="text;html=1;strokeColor=none;fillColor=none;align=left;verticalAlign=middle;whiteSpace=wrap;rounded=0;labelBackgroundColor=none;" parent="1" vertex="1">
          <mxGeometry x="535" y="1320" width="140" height="20" as="geometry" />
        </mxCell>
        <mxCell id="dxDq6lMlbhvPlnrW9h93-196" value="" style="rounded=0;whiteSpace=wrap;html=1;" parent="1" vertex="1">
          <mxGeometry x="745" y="1250" width="160" height="100" as="geometry" />
        </mxCell>
        <mxCell id="dxDq6lMlbhvPlnrW9h93-197" value="Reply" style="text;html=1;strokeColor=none;fillColor=none;align=center;verticalAlign=middle;whiteSpace=wrap;rounded=0;" parent="1" vertex="1">
          <mxGeometry x="760" y="1260" width="130" height="20" as="geometry" />
        </mxCell>
        <mxCell id="dxDq6lMlbhvPlnrW9h93-198" value="" style="rounded=0;whiteSpace=wrap;html=1;" parent="1" vertex="1">
          <mxGeometry x="745" y="1290" width="160" height="80" as="geometry" />
        </mxCell>
        <mxCell id="dxDq6lMlbhvPlnrW9h93-199" value="&lt;div style=&quot;font-family: &amp;#34;consolas&amp;#34; , &amp;#34;courier new&amp;#34; , monospace ; line-height: 24px&quot;&gt;&lt;font style=&quot;font-size: 10px&quot;&gt;char message[512]&lt;/font&gt;&lt;/div&gt;" style="text;html=1;strokeColor=none;fillColor=none;align=left;verticalAlign=middle;whiteSpace=wrap;rounded=0;labelBackgroundColor=none;" parent="1" vertex="1">
          <mxGeometry x="755" y="1300" width="140" height="20" as="geometry" />
        </mxCell>
        <mxCell id="dxDq6lMlbhvPlnrW9h93-200" value="&lt;div style=&quot;font-family: &amp;#34;consolas&amp;#34; , &amp;#34;courier new&amp;#34; , monospace ; line-height: 24px&quot;&gt;&lt;font style=&quot;font-size: 10px&quot;&gt;char owner[32]&lt;/font&gt;&lt;/div&gt;" style="text;html=1;strokeColor=none;fillColor=none;align=left;verticalAlign=middle;whiteSpace=wrap;rounded=0;labelBackgroundColor=none;" parent="1" vertex="1">
          <mxGeometry x="755" y="1320" width="140" height="20" as="geometry" />
        </mxCell>
        <mxCell id="nmqKnieHWT0LCc0bH5Zg-1" value="&lt;div style=&quot;font-family: &amp;quot;consolas&amp;quot; , &amp;quot;courier new&amp;quot; , monospace ; line-height: 24px&quot;&gt;&lt;font style=&quot;font-size: 10px&quot;&gt;int numOfTopics&lt;/font&gt;&lt;/div&gt;" style="text;html=1;strokeColor=none;fillColor=none;align=left;verticalAlign=middle;whiteSpace=wrap;rounded=0;labelBackgroundColor=none;" vertex="1" parent="1">
          <mxGeometry x="50" y="190" width="140" height="20" as="geometry" />
        </mxCell>
        <mxCell id="nmqKnieHWT0LCc0bH5Zg-11" value="" style="whiteSpace=wrap;html=1;aspect=fixed;labelBackgroundColor=none;fontColor=#000000;align=left;" vertex="1" parent="1">
          <mxGeometry x="60" y="1390" width="30" height="30" as="geometry" />
        </mxCell>
        <mxCell id="nmqKnieHWT0LCc0bH5Zg-12" value="" style="whiteSpace=wrap;html=1;aspect=fixed;labelBackgroundColor=none;fontColor=#000000;align=left;" vertex="1" parent="1">
          <mxGeometry x="60" y="1420" width="30" height="30" as="geometry" />
        </mxCell>
        <mxCell id="nmqKnieHWT0LCc0bH5Zg-13" value="" style="whiteSpace=wrap;html=1;aspect=fixed;labelBackgroundColor=none;fontColor=#000000;align=left;" vertex="1" parent="1">
          <mxGeometry x="60" y="1450" width="30" height="30" as="geometry" />
        </mxCell>
        <mxCell id="nmqKnieHWT0LCc0bH5Zg-19" style="edgeStyle=orthogonalEdgeStyle;rounded=0;orthogonalLoop=1;jettySize=auto;html=1;entryX=0;entryY=0.25;entryDx=0;entryDy=0;fontColor=#000000;" edge="1" parent="1" source="nmqKnieHWT0LCc0bH5Zg-14" target="dxDq6lMlbhvPlnrW9h93-99">
          <mxGeometry relative="1" as="geometry" />
        </mxCell>
        <mxCell id="nmqKnieHWT0LCc0bH5Zg-14" value="0" style="text;html=1;strokeColor=none;fillColor=none;align=center;verticalAlign=middle;whiteSpace=wrap;rounded=0;labelBackgroundColor=none;fontColor=#000000;" vertex="1" parent="1">
          <mxGeometry x="65" y="1395" width="20" height="20" as="geometry" />
        </mxCell>
        <mxCell id="nmqKnieHWT0LCc0bH5Zg-25" style="edgeStyle=orthogonalEdgeStyle;rounded=0;orthogonalLoop=1;jettySize=auto;html=1;entryX=0;entryY=0.25;entryDx=0;entryDy=0;fontColor=#000000;" edge="1" parent="1" source="nmqKnieHWT0LCc0bH5Zg-15" target="dxDq6lMlbhvPlnrW9h93-173">
          <mxGeometry relative="1" as="geometry" />
        </mxCell>
        <mxCell id="nmqKnieHWT0LCc0bH5Zg-15" value="1" style="text;html=1;strokeColor=none;fillColor=none;align=center;verticalAlign=middle;whiteSpace=wrap;rounded=0;labelBackgroundColor=none;fontColor=#000000;" vertex="1" parent="1">
          <mxGeometry x="65" y="1425" width="20" height="20" as="geometry" />
        </mxCell>
        <mxCell id="nmqKnieHWT0LCc0bH5Zg-16" value="..." style="text;html=1;strokeColor=none;fillColor=none;align=center;verticalAlign=middle;whiteSpace=wrap;rounded=0;labelBackgroundColor=none;fontColor=#000000;" vertex="1" parent="1">
          <mxGeometry x="65" y="1455" width="20" height="20" as="geometry" />
        </mxCell>
        <mxCell id="nmqKnieHWT0LCc0bH5Zg-17" value="HASHTABLE" style="text;html=1;strokeColor=none;fillColor=none;align=center;verticalAlign=middle;whiteSpace=wrap;rounded=0;labelBackgroundColor=none;fontColor=#000000;" vertex="1" parent="1">
          <mxGeometry x="55" y="1370" width="40" height="20" as="geometry" />
        </mxCell>
        <mxCell id="nmqKnieHWT0LCc0bH5Zg-21" value="&lt;div style=&quot;font-family: &amp;#34;consolas&amp;#34; , &amp;#34;courier new&amp;#34; , monospace ; line-height: 24px&quot;&gt;&lt;font style=&quot;font-size: 10px&quot;&gt;char uuid[37]&lt;/font&gt;&lt;/div&gt;" style="text;html=1;strokeColor=none;fillColor=none;align=left;verticalAlign=middle;whiteSpace=wrap;rounded=0;labelBackgroundColor=none;" vertex="1" parent="1">
          <mxGeometry x="535" y="1340" width="140" height="20" as="geometry" />
        </mxCell>
        <mxCell id="nmqKnieHWT0LCc0bH5Zg-22" value="&lt;div style=&quot;font-family: &amp;#34;consolas&amp;#34; , &amp;#34;courier new&amp;#34; , monospace ; line-height: 24px&quot;&gt;&lt;font style=&quot;font-size: 10px&quot;&gt;char uuid[37]&lt;/font&gt;&lt;/div&gt;" style="text;html=1;strokeColor=none;fillColor=none;align=left;verticalAlign=middle;whiteSpace=wrap;rounded=0;labelBackgroundColor=none;" vertex="1" parent="1">
          <mxGeometry x="755" y="1340" width="140" height="20" as="geometry" />
        </mxCell>
        <mxCell id="nmqKnieHWT0LCc0bH5Zg-26" value="" style="endArrow=none;dashed=1;html=1;dashPattern=1 3;strokeWidth=2;fontColor=#000000;exitX=1;exitY=0.5;exitDx=0;exitDy=0;" edge="1" parent="1" source="nmqKnieHWT0LCc0bH5Zg-13">
          <mxGeometry width="50" height="50" relative="1" as="geometry">
            <mxPoint x="250" y="1440" as="sourcePoint" />
            <mxPoint x="260" y="1465" as="targetPoint" />
          </mxGeometry>
        </mxCell>
        <mxCell id="nmqKnieHWT0LCc0bH5Zg-27" value="EVERY MESSAGES" style="text;html=1;strokeColor=none;fillColor=none;align=center;verticalAlign=middle;whiteSpace=wrap;rounded=0;labelBackgroundColor=none;fontColor=#000000;" vertex="1" parent="1">
          <mxGeometry x="260" y="1455" width="180" height="20" as="geometry" />
        </mxCell>
        <mxCell id="nmqKnieHWT0LCc0bH5Zg-28" value="&lt;div style=&quot;font-family: &amp;#34;consolas&amp;#34; , &amp;#34;courier new&amp;#34; , monospace ; line-height: 24px&quot;&gt;&lt;font style=&quot;font-size: 10px&quot;&gt;int numOfThreads&lt;/font&gt;&lt;/div&gt;" style="text;html=1;strokeColor=none;fillColor=none;align=left;verticalAlign=middle;whiteSpace=wrap;rounded=0;labelBackgroundColor=none;" vertex="1" parent="1">
          <mxGeometry x="150" y="635" width="140" height="20" as="geometry" />
        </mxCell>
        <mxCell id="nmqKnieHWT0LCc0bH5Zg-30" value="&lt;div style=&quot;font-family: &amp;#34;consolas&amp;#34; , &amp;#34;courier new&amp;#34; , monospace ; line-height: 24px&quot;&gt;&lt;font style=&quot;font-size: 10px&quot;&gt;int numOfThreads&lt;/font&gt;&lt;/div&gt;" style="text;html=1;strokeColor=none;fillColor=none;align=left;verticalAlign=middle;whiteSpace=wrap;rounded=0;labelBackgroundColor=none;" vertex="1" parent="1">
          <mxGeometry x="590" y="635" width="140" height="20" as="geometry" />
        </mxCell>
        <mxCell id="nmqKnieHWT0LCc0bH5Zg-31" value="&lt;div style=&quot;font-family: &amp;#34;consolas&amp;#34; , &amp;#34;courier new&amp;#34; , monospace ; line-height: 24px&quot;&gt;&lt;font style=&quot;font-size: 10px&quot;&gt;int numOfReplies&lt;/font&gt;&lt;/div&gt;" style="text;html=1;strokeColor=none;fillColor=none;align=left;verticalAlign=middle;whiteSpace=wrap;rounded=0;labelBackgroundColor=none;" vertex="1" parent="1">
          <mxGeometry x="340" y="1030" width="140" height="20" as="geometry" />
        </mxCell>
        <mxCell id="nmqKnieHWT0LCc0bH5Zg-32" value="&lt;div style=&quot;font-family: &amp;#34;consolas&amp;#34; , &amp;#34;courier new&amp;#34; , monospace ; line-height: 24px&quot;&gt;&lt;font style=&quot;font-size: 10px&quot;&gt;int numOfReplies&lt;/font&gt;&lt;/div&gt;" style="text;html=1;strokeColor=none;fillColor=none;align=left;verticalAlign=middle;whiteSpace=wrap;rounded=0;labelBackgroundColor=none;" vertex="1" parent="1">
          <mxGeometry x="540" y="1030" width="140" height="20" as="geometry" />
        </mxCell>
        <mxCell id="nmqKnieHWT0LCc0bH5Zg-33" value="&lt;div style=&quot;font-family: &amp;#34;consolas&amp;#34; , &amp;#34;courier new&amp;#34; , monospace ; line-height: 24px&quot;&gt;&lt;font style=&quot;font-size: 10px&quot;&gt;int numOfReplies&lt;/font&gt;&lt;/div&gt;" style="text;html=1;strokeColor=none;fillColor=none;align=left;verticalAlign=middle;whiteSpace=wrap;rounded=0;labelBackgroundColor=none;" vertex="1" parent="1">
          <mxGeometry x="810" y="1030" width="140" height="20" as="geometry" />
        </mxCell>
      </root>
    </mxGraphModel>
  </diagram>
</mxfile>
